<svg width="1120" height="80" viewBox="0 0 1120 80" fill="none" xmlns="http://www.w3.org/2000/svg">
<g clip-path="url(#clip0_2_1180)">
<rect width="1120" height="80" fill="#F6F7F8"/>
<line x1="40" y1="79.5" x2="1080" y2="79.5001" stroke="#EDEFF1"/>
<path d="M1032.28 39.806V42.62H1033.45V39.806H1032.28ZM1037.9 33.436V43.068H1039.06V33.436H1037.9ZM1030.42 44.86V45.812H1039.37V44.86H1030.42ZM1030.42 42.13V45.126H1031.58V42.13H1030.42ZM1028.78 40.24C1031.08 40.24 1034.15 40.198 1036.88 39.764L1036.79 38.91C1034.1 39.26 1030.97 39.288 1028.63 39.288L1028.78 40.24ZM1035.32 40.912V41.766H1038.19V40.912H1035.32ZM1032.75 33.954C1030.88 33.954 1029.62 34.822 1029.62 36.152C1029.62 37.496 1030.88 38.364 1032.75 38.364C1034.59 38.364 1035.85 37.496 1035.85 36.152C1035.85 34.822 1034.59 33.954 1032.75 33.954ZM1032.75 34.822C1033.92 34.822 1034.75 35.34 1034.75 36.152C1034.75 36.964 1033.92 37.482 1032.75 37.482C1031.56 37.482 1030.73 36.964 1030.73 36.152C1030.73 35.34 1031.56 34.822 1032.75 34.822ZM1042.38 42.088V43.054H1043.38C1045.79 43.054 1047.47 42.984 1049.46 42.634L1049.35 41.696C1047.4 42.018 1045.75 42.088 1043.38 42.088H1042.38ZM1042.38 34.584V42.424H1043.52V35.55H1048.51V34.584H1042.38ZM1043.24 38.126V39.064H1048.05V38.126H1043.24ZM1050.79 33.436V46.092H1051.95V33.436H1050.79ZM1055.9 39.498V40.45H1064.59V39.498H1055.9ZM1054.46 43.418V44.384H1065.92V43.418H1054.46ZM1055.9 34.598V39.918H1057.06V35.564H1064.47V34.598H1055.9ZM1076.53 33.436V40.604H1077.7V33.436H1076.53ZM1068.12 34.164V39.316H1069.27V34.164H1068.12ZM1068.12 38.672V39.652H1069.14C1071.33 39.652 1073.23 39.512 1075.33 39.064L1075.16 38.112C1073.15 38.532 1071.26 38.672 1069.14 38.672H1068.12ZM1069.52 41.22V45.924H1077.7V41.22H1069.52ZM1076.56 42.144V44.972H1070.65V42.144H1076.56Z" fill="#3A474E"/>
<circle cx="998" cy="40" r="19.5" fill="#EDEFF1" stroke="#D1D8DC"/>
<path fill-rule="evenodd" clip-rule="evenodd" d="M995 34C995 32.3431 996.343 31 998 31C999.657 31 1001 32.3431 1001 34C1001 35.6569 999.657 37 998 37C996.343 37 995 35.6569 995 34ZM998 29C995.239 29 993 31.2386 993 34C993 36.7614 995.239 39 998 39C1000.76 39 1003 36.7614 1003 34C1003 31.2386 1000.76 29 998 29ZM994 41C992.674 41 991.402 41.5268 990.464 42.4645C989.527 43.4021 989 44.6739 989 46V48C989 48.5523 989.448 49 990 49C990.552 49 991 48.5523 991 48V46C991 45.2043 991.316 44.4413 991.879 43.8787C992.441 43.3161 993.204 43 994 43H1002C1002.8 43 1003.56 43.3161 1004.12 43.8787C1004.68 44.4413 1005 45.2044 1005 46V48C1005 48.5523 1005.45 49 1006 49C1006.55 49 1007 48.5523 1007 48V46C1007 44.6739 1006.47 43.4021 1005.54 42.4645C1004.6 41.5268 1003.33 41 1002 41H994Z" fill="#94A2AD"/>
<g clip-path="url(#clip1_2_1180)">
<path fill-rule="evenodd" clip-rule="evenodd" d="M935.293 30.2929C935.48 30.1054 935.735 30 936 30C936.265 30 936.52 30.1054 936.707 30.2929C936.895 30.4804 937 30.7348 937 31V31.09L937 31.094C937.002 31.6108 937.155 32.1157 937.441 32.5466C937.725 32.976 938.128 33.3132 938.601 33.517C939.084 33.7291 939.62 33.7921 940.139 33.698C940.66 33.6035 941.141 33.3551 941.519 32.9849L941.519 32.9849L941.527 32.9771L941.587 32.9171L941.587 32.9167C941.68 32.8237 941.791 32.75 941.912 32.6997C942.033 32.6493 942.164 32.6234 942.295 32.6234C942.426 32.6234 942.557 32.6493 942.678 32.6997C942.799 32.75 942.91 32.8237 943.002 32.9167L943.003 32.9175C943.096 33.0104 943.17 33.1207 943.22 33.2421C943.271 33.3635 943.297 33.4936 943.297 33.625C943.297 33.7564 943.271 33.8865 943.22 34.0079C943.17 34.1293 943.096 34.2396 943.003 34.3325L943.003 34.3329L942.943 34.3929L942.943 34.3929L942.935 34.4007C942.565 34.7793 942.317 35.26 942.222 35.781C942.14 36.2333 942.177 36.698 942.328 37.1296C942.34 37.2204 942.365 37.3094 942.401 37.3939C942.604 37.869 942.942 38.2741 943.373 38.5594C943.804 38.8448 944.309 38.9979 944.826 39L944.83 39H945C945.265 39 945.52 39.1054 945.707 39.2929C945.895 39.4804 946 39.7348 946 40C946 40.2652 945.895 40.5196 945.707 40.7071C945.52 40.8946 945.265 41 945 41L944.91 41L944.906 41C944.389 41.0021 943.884 41.1552 943.453 41.4406C943.024 41.725 942.687 42.1283 942.483 42.6012C942.271 43.0843 942.208 43.6198 942.302 44.139C942.397 44.66 942.645 45.1407 943.015 45.5193L943.015 45.5193L943.023 45.5271L943.083 45.5871L943.083 45.5875C943.176 45.6804 943.25 45.7907 943.3 45.9121C943.351 46.0335 943.377 46.1636 943.377 46.295C943.377 46.4264 943.351 46.5565 943.3 46.6779C943.25 46.7993 943.176 46.9096 943.083 47.0025L943.083 47.0033C942.99 47.0963 942.879 47.17 942.758 47.2203C942.637 47.2707 942.506 47.2966 942.375 47.2966C942.244 47.2966 942.113 47.2707 941.992 47.2203C941.871 47.17 941.76 47.0963 941.667 47.0033L941.667 47.0029L941.607 46.9429L941.607 46.9429L941.599 46.9351C941.221 46.5649 940.74 46.3165 940.219 46.222C939.7 46.1279 939.164 46.1909 938.681 46.4029C938.208 46.6067 937.805 46.944 937.521 47.3734C937.235 47.8043 937.082 48.3092 937.08 48.826L937.08 48.83V49C937.08 49.2652 936.975 49.5196 936.787 49.7071C936.6 49.8946 936.345 50 936.08 50C935.815 50 935.56 49.8946 935.373 49.7071C935.185 49.5196 935.08 49.2652 935.08 49V48.91L935.08 48.8866C935.067 48.355 934.895 47.8395 934.586 47.407C934.283 46.983 933.861 46.6581 933.375 46.4725C932.898 46.2689 932.372 46.2095 931.861 46.302C931.34 46.3965 930.859 46.6449 930.481 47.0151L930.481 47.0151L930.473 47.0229L930.413 47.0829L930.412 47.0833C930.32 47.1763 930.209 47.25 930.088 47.3003C929.967 47.3507 929.836 47.3766 929.705 47.3766C929.574 47.3766 929.443 47.3507 929.322 47.3003C929.201 47.25 929.09 47.1763 928.998 47.0833L928.997 47.0825C928.904 46.9896 928.83 46.8793 928.78 46.7579C928.729 46.6365 928.703 46.5064 928.703 46.375C928.703 46.2436 928.729 46.1135 928.78 45.9921C928.83 45.8707 928.904 45.7604 928.997 45.6675L928.997 45.6671L929.057 45.6071L929.057 45.6072L929.065 45.5993C929.435 45.2207 929.683 44.74 929.778 44.219C929.872 43.6998 929.809 43.1643 929.597 42.6811C929.393 42.2082 929.056 41.8049 928.627 41.5206C928.196 41.2352 927.691 41.0821 927.174 41.08V41.08H927.17H927C926.735 41.08 926.48 40.9746 926.293 40.7871C926.105 40.5996 926 40.3452 926 40.08C926 39.8148 926.105 39.5604 926.293 39.3729C926.48 39.1854 926.735 39.08 927 39.08H927.09L927.113 39.0797C927.645 39.0673 928.161 38.8952 928.593 38.5859C929.017 38.2827 929.342 37.8613 929.527 37.3748C929.731 36.898 929.791 36.3716 929.698 35.861C929.603 35.34 929.355 34.8593 928.985 34.4807L928.985 34.4807L928.977 34.4729L928.917 34.4129L928.917 34.4125C928.824 34.3196 928.75 34.2093 928.7 34.0879C928.649 33.9665 928.623 33.8364 928.623 33.705C928.623 33.5736 928.649 33.4435 928.7 33.3221C928.75 33.2007 928.824 33.0904 928.917 32.9975L928.918 32.9967C929.01 32.9037 929.121 32.83 929.242 32.7797C929.363 32.7293 929.494 32.7034 929.625 32.7034C929.756 32.7034 929.887 32.7293 930.008 32.7797C930.129 32.83 930.24 32.9037 930.332 32.9967L930.333 32.9971L930.393 33.0571L930.393 33.0571L930.401 33.0649C930.779 33.4351 931.26 33.6835 931.781 33.778C932.233 33.86 932.698 33.8227 933.13 33.6716C933.22 33.6597 933.309 33.6354 933.394 33.5991C933.869 33.3956 934.274 33.0575 934.559 32.6266C934.845 32.1957 934.998 31.6908 935 31.174H935V31.17V31C935 30.7348 935.105 30.4804 935.293 30.2929ZM944.315 43.4038L943.4 43L944.319 43.3939C944.369 43.2774 944.452 43.178 944.558 43.1081C944.663 43.0383 944.786 43.0008 944.913 43H945C945.796 43 946.559 42.6839 947.121 42.1213C947.684 41.5587 948 40.7957 948 40C948 39.2043 947.684 38.4413 947.121 37.8787C946.559 37.3161 945.796 37 945 37H944.833C944.706 36.9992 944.583 36.9617 944.478 36.8919C944.407 36.845 944.346 36.7848 944.299 36.7151C944.285 36.6469 944.263 36.5803 944.235 36.5162C944.182 36.3974 944.167 36.2656 944.19 36.1378C944.213 36.0114 944.273 35.8947 944.362 35.8023L944.417 35.7475L944.417 35.7471C944.696 35.4686 944.917 35.1378 945.068 34.7738C945.219 34.4096 945.297 34.0192 945.297 33.625C945.297 33.2308 945.219 32.8404 945.068 32.4762C944.917 32.1123 944.696 31.7817 944.417 31.5033C944.139 31.2244 943.808 31.0031 943.444 30.8521C943.08 30.7011 942.689 30.6234 942.295 30.6234C941.901 30.6234 941.51 30.7011 941.146 30.8521C940.782 31.0031 940.451 31.2244 940.172 31.5033L940.118 31.5581C940.025 31.6473 939.909 31.7071 939.782 31.73C939.654 31.7532 939.523 31.7376 939.404 31.6851L939.404 31.6851L939.394 31.6809C939.277 31.6309 939.178 31.548 939.108 31.4423C939.038 31.337 939.001 31.2137 939 31.0875V31C939 30.2043 938.684 29.4413 938.121 28.8787C937.559 28.3161 936.796 28 936 28C935.204 28 934.441 28.3161 933.879 28.8787C933.316 29.4413 933 30.2043 933 31V31.1675C932.999 31.2937 932.962 31.417 932.892 31.5223C932.845 31.5932 932.785 31.6539 932.715 31.7012C932.647 31.7155 932.58 31.7369 932.516 31.7651C932.397 31.8176 932.266 31.8332 932.138 31.81C932.011 31.7871 931.895 31.7273 931.802 31.6381L931.747 31.5833C931.469 31.3044 931.138 31.0831 930.774 30.9321C930.41 30.7811 930.019 30.7034 929.625 30.7034C929.231 30.7034 928.84 30.7811 928.476 30.9321C928.112 31.083 927.781 31.3041 927.503 31.5829C927.224 31.8614 927.003 32.1922 926.852 32.5562C926.701 32.9204 926.623 33.3108 926.623 33.705C926.623 34.0992 926.701 34.4896 926.852 34.8538C927.003 35.218 927.224 35.5489 927.503 35.8275L927.558 35.8823C927.647 35.9747 927.707 36.0914 927.73 36.2178C927.753 36.3456 927.738 36.4774 927.685 36.5962C927.677 36.6155 927.669 36.635 927.661 36.6548C927.616 36.7772 927.536 36.8833 927.43 36.9591C927.326 37.0333 927.203 37.0753 927.076 37.08H927C926.204 37.08 925.441 37.3961 924.879 37.9587C924.316 38.5213 924 39.2844 924 40.08C924 40.8756 924.316 41.6387 924.879 42.2013C925.441 42.7639 926.204 43.08 927 43.08H927.167C927.294 43.0808 927.417 43.1183 927.522 43.1881C927.628 43.258 927.711 43.3574 927.761 43.4739L927.761 43.474L927.765 43.4838C927.818 43.6026 927.833 43.7344 927.81 43.8622C927.787 43.9886 927.727 44.1053 927.638 44.1977L927.583 44.2525C927.304 44.5311 927.083 44.862 926.932 45.2262C926.781 45.5904 926.703 45.9808 926.703 46.375C926.703 46.7692 926.781 47.1596 926.932 47.5238C927.083 47.888 927.304 48.2189 927.583 48.4975C927.862 48.7761 928.192 48.9971 928.556 49.1479C928.92 49.2989 929.311 49.3766 929.705 49.3766C930.099 49.3766 930.49 49.2989 930.854 49.1479C931.218 48.997 931.549 48.7759 931.827 48.4971L931.827 48.4967L931.882 48.4419C931.975 48.3527 932.091 48.2929 932.218 48.27C932.346 48.2468 932.477 48.2624 932.596 48.3149C932.616 48.3234 932.635 48.3313 932.655 48.3385C932.777 48.3836 932.883 48.4644 932.959 48.5704C933.033 48.6741 933.075 48.7972 933.08 48.9244V49C933.08 49.7957 933.396 50.5587 933.959 51.1213C934.521 51.6839 935.284 52 936.08 52C936.876 52 937.639 51.6839 938.201 51.1213C938.764 50.5587 939.08 49.7957 939.08 49V48.8325C939.081 48.7063 939.118 48.583 939.188 48.4777C939.258 48.372 939.357 48.2891 939.474 48.2391L939.474 48.2392L939.484 48.2349C939.603 48.1824 939.734 48.1668 939.862 48.19C939.989 48.2129 940.105 48.2727 940.198 48.3619L940.252 48.4167L940.253 48.4171C940.531 48.6959 940.862 48.917 941.226 49.0679C941.59 49.2189 941.981 49.2966 942.375 49.2966C942.769 49.2966 943.16 49.2189 943.524 49.0679C943.888 48.917 944.219 48.6959 944.497 48.4171C944.497 48.4172 944.497 48.4174 944.497 48.4175L943.79 47.71L944.498 48.4167C944.497 48.4168 944.497 48.417 944.497 48.4171C944.776 48.1386 944.997 47.8078 945.148 47.4438C945.299 47.0796 945.377 46.6892 945.377 46.295C945.377 45.9008 945.299 45.5104 945.148 45.1462C944.997 44.7822 944.776 44.4514 944.497 44.1729L944.497 44.1725L944.442 44.1177C944.353 44.0253 944.293 43.9086 944.27 43.7822C944.247 43.6544 944.262 43.5226 944.315 43.4038ZM934 40C934 38.8954 934.895 38 936 38C937.105 38 938 38.8954 938 40C938 41.1046 937.105 42 936 42C934.895 42 934 41.1046 934 40ZM936 36C933.791 36 932 37.7909 932 40C932 42.2091 933.791 44 936 44C938.209 44 940 42.2091 940 40C940 37.7909 938.209 36 936 36Z" fill="#3A474E"/>
</g>
<path fill-rule="evenodd" clip-rule="evenodd" d="M882 29C880.143 29 878.363 29.7375 877.05 31.0503C875.737 32.363 875 34.1435 875 36C875 39.3527 874.283 41.4346 873.622 42.6461C873.29 43.2544 872.967 43.6535 872.743 43.8904C872.63 44.0091 872.542 44.0878 872.489 44.1322C872.462 44.1544 872.444 44.168 872.437 44.1737L872.434 44.1758C872.075 44.4221 871.917 44.8725 872.043 45.2898C872.171 45.7115 872.559 46 873 46H891C891.441 46 891.829 45.7115 891.957 45.2898C892.083 44.8725 891.925 44.4221 891.566 44.1758L891.563 44.1737C891.556 44.168 891.538 44.1544 891.511 44.1322C891.458 44.0878 891.37 44.0091 891.257 43.8904C891.033 43.6535 890.71 43.2544 890.378 42.6461C889.717 41.4346 889 39.3527 889 36C889 34.1435 888.262 32.363 886.95 31.0503C885.637 29.7375 883.856 29 882 29ZM888.622 43.6039C888.698 43.7434 888.775 43.8753 888.851 44H875.149C875.225 43.8753 875.302 43.7434 875.378 43.6039C876.217 42.0654 877 39.6473 877 36C877 34.6739 877.527 33.4021 878.464 32.4645C879.402 31.5268 880.674 31 882 31C883.326 31 884.598 31.5268 885.535 32.4645C886.473 33.4021 887 34.6739 887 36C887 39.6473 887.783 42.0654 888.622 43.6039ZM881.135 48.4982C880.858 48.0205 880.246 47.8579 879.768 48.135C879.29 48.4121 879.128 49.024 879.405 49.5018C879.669 49.9564 880.047 50.3337 880.503 50.5961C880.958 50.8584 881.474 50.9965 882 50.9965C882.526 50.9965 883.042 50.8584 883.497 50.5961C883.953 50.3337 884.331 49.9564 884.595 49.5018C884.872 49.024 884.709 48.4121 884.232 48.135C883.754 47.8579 883.142 48.0205 882.865 48.4982C882.777 48.6498 882.651 48.7756 882.499 48.863C882.347 48.9504 882.175 48.9965 882 48.9965C881.825 48.9965 881.653 48.9504 881.501 48.863C881.349 48.7756 881.223 48.6498 881.135 48.4982Z" fill="#3A474E"/>
<circle cx="893.5" cy="28.5" r="2.5" transform="rotate(-180 893.5 28.5)" fill="#EA3A4B"/>
</g>
<defs>
<clipPath id="clip0_2_1180">
<rect width="1120" height="80" fill="white"/>
</clipPath>
<clipPath id="clip1_2_1180">
<rect width="24" height="24" fill="white" transform="translate(924 28)"/>
</clipPath>
</defs>
</svg>
